<?xml version="1.0" standalone="no"?>
<!DOCTYPE svg PUBLIC "-//W3C//DTD SVG 20010904//EN"
 "http://www.w3.org/TR/2001/REC-SVG-20010904/DTD/svg10.dtd">
<svg version="1.0" xmlns="http://www.w3.org/2000/svg"
 width="1024.000000pt" height="1024.000000pt" viewBox="0 0 1024.000000 1024.000000"
 preserveAspectRatio="xMidYMid meet">

<g transform="translate(0.000000,1024.000000) scale(0.100000,-0.100000)"
fill="#000000" stroke="none">
<path d="M3980 8149 c-175 -20 -369 -71 -405 -106 -32 -33 -47 -86 -34 -121 6
-15 47 -85 92 -157 250 -401 351 -513 553 -617 141 -73 207 -90 369 -95 119
-4 153 -2 228 16 48 11 101 28 119 37 25 13 32 14 39 2 33 -50 112 -218 138
-291 30 -86 66 -261 59 -291 -2 -12 -18 -8 -78 21 -214 100 -402 138 -635 130
-160 -5 -292 -32 -450 -92 -350 -133 -692 -427 -905 -779 -197 -327 -290 -673
-290 -1079 0 -337 54 -648 170 -982 42 -121 182 -404 269 -544 214 -343 543
-664 842 -820 199 -105 395 -144 604 -122 109 11 118 14 432 125 190 68 297
60 548 -39 204 -80 245 -89 420 -89 109 0 172 5 230 18 253 57 526 233 805
519 132 136 198 216 298 367 299 449 464 1006 464 1565 -1 344 -65 626 -212
930 -163 335 -397 597 -698 784 -438 272 -910 314 -1351 121 -64 -29 -121 -54
-127 -56 -16 -7 11 204 37 291 46 155 146 326 256 440 133 139 309 240 513
296 131 36 170 56 199 103 41 66 22 151 -44 201 -62 48 -144 44 -325 -16 -121
-39 -185 -69 -288 -131 -199 -120 -368 -299 -472 -501 -25 -48 -48 -87 -51
-87 -4 0 -30 55 -59 123 -80 186 -174 366 -243 463 -250 352 -599 511 -1017
463z m325 -335 c102 -24 215 -86 299 -165 74 -69 194 -224 183 -236 -14 -14
-129 -33 -198 -33 -131 0 -268 57 -367 153 -43 41 -188 249 -194 278 -6 29
157 31 277 3z m418 -1473 c44 -11 148 -50 233 -86 198 -84 246 -96 370 -97
112 0 169 16 352 96 198 88 316 115 488 116 328 1 719 -197 969 -490 107 -124
170 -221 245 -375 110 -224 151 -379 170 -637 26 -369 -44 -775 -192 -1128
-132 -311 -289 -550 -508 -771 -209 -210 -385 -329 -566 -381 -66 -19 -103
-23 -224 -23 -167 0 -212 11 -401 96 -161 72 -249 93 -369 86 -108 -6 -178
-26 -341 -96 -172 -73 -230 -86 -394 -86 -119 0 -151 4 -215 24 -200 62 -394
200 -597 422 -330 362 -534 786 -622 1293 -46 265 -47 595 -2 810 40 187 138
418 247 581 227 339 584 596 919 661 104 20 338 12 438 -15z"/>
<path d="M4378 6140 c-133 -13 -291 -74 -433 -168 -103 -68 -321 -289 -388
-392 -106 -164 -167 -311 -208 -500 -18 -85 -23 -146 -27 -320 -5 -251 9 -377
62 -595 108 -438 294 -773 601 -1080 231 -232 404 -316 619 -302 106 8 166 25
331 94 174 74 214 84 355 90 156 7 225 -9 430 -97 182 -78 247 -93 370 -87
119 5 210 36 326 109 331 208 637 628 783 1072 93 286 126 518 118 831 -6 214
-15 272 -69 435 -75 230 -192 416 -366 581 -110 105 -193 165 -309 223 -158
79 -230 99 -379 104 -157 5 -254 -11 -383 -65 -47 -20 -128 -53 -178 -74 -112
-46 -217 -69 -317 -69 -139 0 -224 24 -472 134 -150 67 -303 91 -466 76z m292
-523 c75 -49 70 6 73 -868 l2 -784 28 -47 c43 -75 56 -78 283 -78 181 0 201
-2 241 -21 102 -49 116 -163 30 -233 l-39 -31 -214 -3 c-229 -3 -276 3 -368
50 -56 29 -148 119 -179 176 -56 104 -57 108 -57 960 0 703 2 788 16 818 36
75 122 104 184 61z m1680 -169 c89 -45 118 -143 63 -209 -38 -44 -80 -59 -170
-59 -88 0 -141 -19 -185 -66 -44 -47 -58 -94 -58 -193 l0 -90 169 -3 c153 -3
172 -5 197 -24 92 -68 92 -170 0 -238 -25 -19 -44 -21 -196 -24 l-170 -4 -2
-591 c-3 -503 -5 -596 -18 -621 -48 -93 -174 -92 -232 1 l-23 38 0 845 c0 930
-2 893 62 1012 34 62 135 158 202 193 113 57 283 72 361 33z"/>
<path d="M5314 8021 c-66 -16 -118 -75 -129 -147 -12 -76 57 -164 142 -180 76
-14 161 39 184 116 36 119 -77 240 -197 211z"/>
</g>
</svg>
