<?xml version="1.0" standalone="no"?>
<!DOCTYPE svg PUBLIC "-//W3C//DTD SVG 20010904//EN"
 "http://www.w3.org/TR/2001/REC-SVG-20010904/DTD/svg10.dtd">
<svg version="1.0" xmlns="http://www.w3.org/2000/svg"
 width="1024.000000pt" height="1024.000000pt" viewBox="0 0 1024.000000 1024.000000"
 preserveAspectRatio="xMidYMid meet">

<g transform="translate(0.000000,1024.000000) scale(0.100000,-0.100000)"
fill="#000000" stroke="none">
<path d="M6265 8113 c-421 -54 -720 -223 -953 -538 -142 -192 -248 -534 -267
-858 -3 -56 -8 -117 -11 -135 l-5 -33 -27 19 c-43 31 -201 107 -277 135 -135
48 -257 68 -420 70 -383 2 -691 -141 -967 -450 -162 -180 -273 -412 -327 -678
-97 -480 6 -1159 267 -1757 215 -492 510 -856 794 -981 109 -48 197 -68 329
-74 148 -7 203 3 435 77 188 61 264 74 373 67 94 -7 116 -12 333 -80 186 -59
263 -71 408 -64 132 6 224 29 347 87 186 87 289 186 510 487 19 26 105 172
181 308 18 33 118 264 152 350 48 125 117 370 151 532 145 703 88 1192 -188
1608 -74 111 -209 252 -318 333 -231 171 -576 263 -873 233 -186 -19 -379 -82
-509 -167 -52 -33 -69 -40 -71 -28 -8 37 43 342 73 434 l15 45 182 1 c155 0
195 4 261 22 262 72 489 244 629 477 115 193 206 476 170 533 -15 23 -77 32
-222 31 -80 -1 -158 -4 -175 -6z m-2412 -1904 c41 -21 87 -73 92 -103 3 -17 7
-461 8 -986 2 -950 2 -955 23 -1012 58 -151 180 -262 335 -305 59 -17 129 -18
834 -18 698 0 776 2 838 17 142 37 252 113 330 229 26 39 47 74 47 79 0 4 -39
-12 -87 -36 -112 -57 -219 -84 -358 -91 -596 -31 -1101 428 -1132 1028 -7 135
12 267 57 409 53 161 122 272 258 412 143 147 296 240 488 295 174 49 416 42
604 -19 239 -77 474 -269 496 -405 13 -81 -40 -159 -123 -182 -62 -17 -103 1
-196 88 -106 97 -159 133 -259 171 -233 90 -507 45 -701 -115 -110 -91 -192
-212 -245 -365 -24 -69 -26 -88 -27 -240 0 -185 6 -214 78 -355 55 -106 190
-244 292 -297 115 -60 210 -82 350 -82 207 0 370 63 509 198 l46 45 0 122 0
122 -297 -5 c-355 -7 -401 -3 -444 38 -86 80 -75 222 21 278 34 20 52 21 493
24 506 3 511 3 543 -60 23 -45 15 -887 -9 -970 -98 -327 -319 -552 -632 -640
l-80 -23 -835 0 c-778 0 -840 1 -915 19 -331 76 -581 355 -626 696 -6 46 -9
427 -7 1000 3 880 4 927 22 963 34 70 144 109 209 76z"/>
<path d="M3949 7959 c-19 -19 -21 -29 -15 -88 29 -299 195 -582 417 -714 157
-93 424 -133 547 -81 44 18 62 64 62 156 -1 240 -136 479 -350 617 -137 89
-303 131 -511 131 -118 0 -131 -2 -150 -21z"/>
</g>
</svg>
