<?xml version="1.0" encoding="utf-8"?>
<!-- Generator: Adobe Illustrator 23.0.0, SVG Export Plug-In . SVG Version: 6.00 Build 0)  -->
<svg version="1.1" id="Layer_1" xmlns="http://www.w3.org/2000/svg" xmlns:xlink="http://www.w3.org/1999/xlink" x="0px" y="0px"
	 viewBox="0 0 1080 1080" style="enable-background:new 0 0 1080 1080;" xml:space="preserve">
<style type="text/css">
	.st0{opacity:0.12;fill:#2A94F4;}
	.st1{fill:#F7F7F7;}
	.st2{fill:#2A94F4;}
	.st3{fill:#FA968C;}
	.st4{fill:#0B4870;}
	.st5{fill:#FAB9AF;}
	.st6{fill:#FFBE55;}
	.st7{fill:#003C48;}
	.st8{opacity:0.51;fill:#2A94F4;}
	.st9{fill:#3E3662;}
	.st10{fill:#FF980D;}
	.st11{opacity:0.32;fill:#9B9B9B;}
	.st12{opacity:0.46;fill:#F7F7F7;}
</style>
<path class="st0" d="M244.49,734.07c0-170.34,138.09-308.43,308.43-308.43s308.43,138.09,308.43,308.43"/>
<path class="st1" d="M891.5,787.07h-677c-14.64,0-26.5-11.86-26.5-26.5l0,0c0-14.64,11.86-26.5,26.5-26.5h677
	c14.64,0,26.5,11.86,26.5,26.5l0,0C918,775.2,906.14,787.07,891.5,787.07z"/>
<rect x="195" y="561" class="st2" width="175" height="175"/>
<path class="st3" d="M432.66,658.11c0,0,3.59,1.61,5.81,4.4c1.83,2.31,3.21,3.43,3.69,6.34c0.15,0.93,0.95,2.21,1.61,3.29
	c0.54,0.87,1.47,1.34,2.48,1.44c17.74,1.68,31.9-12.33,30.95-13.27c-1.7-1.69-7.02-1.15-10.77,1.41c-3.78,2.58-8.71,2.75-12.91,0.93
	l0,0c-3.34-1.44-6.25-3.72-8.45-6.62l-9-12.89L432.66,658.11z"/>
<path class="st4" d="M448.65,679.63c-1.17,0.32-2.39-0.24-2.89-1.35c-0.41-0.9-1.55-3.33-2.41-5.15c-0.37-0.79,0.22-1.67,1.09-1.67
	c9.91,0,19.27-3.43,24.44-11.27c3.14-1.84,8.13-1.59,9.48-0.25c0.32,0.31-1.41,4.06-5.53,6.91
	C454.57,679.48,448.65,679.63,448.65,679.63z"/>
<path class="st3" d="M378.49,668.34c0,0-0.79,20.95-1.18,24.5c-0.32,2.93-2.15,5.37-3.86,7.77c-0.55,0.77-0.88,2.23-1.17,3.47
	c-0.23,0.99,0.1,1.99,0.75,2.77c11.43,13.68,31.34,13.68,31.33,12.35c-0.02-2.4-4.18-5.75-8.64-6.58c-4.5-0.83-8.12-4.18-9.83-8.42
	l0,0c-1.36-3.38-1.82-7.04-1.35-10.65l2.67-15.49L378.49,668.34z"/>
<path class="st4" d="M374.7,540l26.69,58.22l31.27,59.88l4.6-13.53c0,0,0.77,3.32-7.2-16.52c-7.96-19.85-28.66-89.71-28.66-89.71
	s-8.81-19.12-63.71-12.61c-54.9,6.51-48.01-3.24-48.01-3.24l76.01,27.36l29.18,14.81L374.7,540z"/>
<path class="st4" d="M370.49,712.84c-1.06-0.59-1.53-1.86-1.11-2.99c0.35-0.93,1.24-3.46,1.92-5.35c0.29-0.82,1.33-1.03,1.95-0.41
	c7.04,6.97,16.11,11.12,25.3,9.18c3.53,0.9,6.9,4.59,6.91,6.49c0,0.45-3.86,1.89-8.79,1.02C374.8,716.9,370.49,712.84,370.49,712.84
	z"/>
<path class="st4" d="M302.36,561c0,0,61.64-3,70.64,0s12,55,8,87s-3,33-3,33l7.34,8c0,0,17.66-88,18.66-100s4.45-34-12.55-49
	s-70.6-8.45-81.6-16.45S241.72,555,302.36,561z"/>
<ellipse class="st4" cx="314.35" cy="403.33" rx="18.81" ry="24.27"/>
<path class="st4" d="M309.84,405.84c-0.3-13.43-11.18-24.73-24.59-25.49c-11.9-0.68-22.18,6.61-26.02,17.03
	c-1.35,3.65-4.92,6.02-8.81,5.97c-1.62-0.02-3.28,0.12-4.97,0.47c-9.83,2.01-17.47,10.32-18.5,20.3c-0.93,9,3.28,17.08,10.05,21.69
	c2.89,1.97,4.53,5.22,5.01,8.68c2.22,16.01,16.84,27.77,33.52,25.95c14.26-1.56,25.68-13.3,26.89-27.6
	c0.74-8.77-2.27-16.82-7.56-22.79C303.87,425.78,310.08,416.53,309.84,405.84z"/>
<path class="st4" d="M314.35,371.1c0,0,10.59,6.66,9.3,15.64c0,0,5.65-4,6.93-17.8C331.47,359.38,314.35,371.1,314.35,371.1z"/>
<g>
	<path class="st5" d="M334.89,423.95c1.41,6.05,2.32,12.22,2.77,18.35c0.45,6.12,0.42,12.22,0.53,17.86
		c0.08,2.8,0.25,5.48,0.79,7.77c0.28,1.13,0.67,2.14,1.15,3.09c0.5,0.92,1.17,1.76,1.97,2.56c1.69,1.55,4.04,2.8,6.6,3.79
		c2.57,1.01,5.34,1.76,8.14,2.46l0.04,0.01c1.08,0.27,1.73,1.36,1.46,2.44c-0.24,0.94-1.1,1.56-2.03,1.52
		c-3.02-0.13-6.06-0.4-9.16-0.99c-3.08-0.61-6.29-1.58-9.36-3.53c-1.5-1.02-2.94-2.27-4.13-3.76c-1.15-1.5-2.07-3.15-2.76-4.8
		c-1.34-3.3-1.97-6.5-2.53-9.54c-0.54-3.04-0.93-5.97-1.37-8.84c-0.43-2.87-0.92-5.67-1.47-8.45c-0.52-2.78-1.14-5.51-1.85-8.21
		c-0.66-2.71-1.49-5.38-2.29-8.04l-0.03-0.09c-1.11-3.7,0.98-7.61,4.69-8.73s7.61,0.98,8.73,4.69
		C334.82,423.65,334.86,423.81,334.89,423.95z"/>
</g>
<path class="st4" d="M272.12,517.81c0,0-19.72,45.2,30.83,43.53c50.56-1.66,55.53-7.15,55.53-7.15S270.46,509.89,272.12,517.81z"/>
<path class="st6" d="M326.2,472.3c4.24-12.76,12.76-39.79,12.03-48.63c-0.47-5.66-5.2-9.99-10.87-9.99h-36.85
	c-6.11,0-11.11,4.84-11.29,10.95c-0.31,10.67,4.61,34.96,7.37,47.67H326.2z"/>
<path class="st6" d="M282.38,488.48c1.91-5.35,2.48-11.08,1.68-16.7c-1.86-13.06-5.11-37.66-4.81-48.1c0.16-5.58,4.73-10,10.32-10
	h5.46c2.08,4.83,6.49,8.55,13.35,8.55c6.84,0,11.25-3.73,13.34-8.55h5.13c-5.58,11.94-3.57,27.68,6.02,36.87
	c-1.78,6.3-3.28,12.64-4.4,17.78c-1.52,6.96-0.85,14.21,1.89,20.79c4.71,11.3,8.44,29.43,7.33,36.61
	c-38.76,10.99-65.56-8.46-65.56-8.46L282.38,488.48z"/>
<g>
	<polygon class="st5" points="314.35,416.21 297.64,414.46 302.92,396.17 313.74,397.51 	"/>
</g>
<path class="st3" d="M313.74,397.51l-10.81-1.34l-1.65,5.71c2.42,2.73,5.53,8.62,9.46,8.62c1.25,0,2.39-0.35,3.41-1L313.74,397.51z"
	/>
<path class="st5" d="M314.11,406.35c-3.67,0-7.64-1.84-13.11-6.62c-3.14-2.74-5.47-7.53-5.47-10.76V371.1h27.52
	c0,0,2.07,9.49,0.06,18.91C321.61,397.07,317,406.35,314.11,406.35z"/>
<path class="st5" d="M300.2,385.59c0,3.49-1.67,6.31-3.73,6.31c-2.06,0-4.33-4.57-4.33-8.06c0-3.49,2.27-4.57,4.33-4.57
	C298.53,379.28,300.2,382.11,300.2,385.59z"/>
<path class="st4" d="M292.14,373.26c0-5.58,4.53-10.11,10.11-10.1l9.29,0c2.66,0,5.23-0.69,7.49-1.98c3.28-1.86,7.42-1.24,9.66,1.79
	c2.42,3.28,3.46,7.67-2.67,11.73c-3.05,2.02-7.5-0.22-10.47,0.75c-0.18-0.01-0.35-0.04-0.54-0.04h-8.19c-2.84,0-5.02,2.33-5.1,5.17
	c-0.05,1.8-1.53,3.24-3.34,3.24h-0.36l-1.31-4.2l-4.57,6.16V373.26z"/>
<path class="st5" d="M344.42,497.77c0,0-9.57-1.56-11.01,1.2c-1.44,2.76-1.91,4.88,2.03,7.13c3.94,2.25,10.42,3.47,14.45,3.42
	c4.03-0.05,10.75-2.99,11.26-3.78c1.86-2.87-5.43-2.02-8.98-1.77c-3.55,0.24-7.59,0.17-7.22-1.58s7.2-1.7,8.28-3.55
	C354.32,496.98,344.42,497.77,344.42,497.77z"/>
<path class="st4" d="M321,370.79c-0.92,4.08,0.44,6.32-12.95,12.69c-13.38,6.37-17.62,3.65-21.8,10.51c0,0,1.83-11.37,9.22-15.27
	c7.39-3.9,20.21-6.45,24.32-15.48C319.8,363.24,321.63,367.99,321,370.79z"/>
<g>
	<path class="st5" d="M290.39,428.76c-0.77,1.02-1.63,2.24-2.42,3.39c-0.81,1.17-1.6,2.36-2.38,3.55c-1.55,2.4-3.03,4.85-4.43,7.33
		c-2.83,4.95-5.33,10.06-7.25,15.3c-1.93,5.22-3.35,10.59-3.55,15.84c-0.18,5.23,0.91,10.26,3.81,14.27
		c2.84,4.06,7.4,7.03,12.49,9.05c5.13,2,10.74,3.17,16.45,3.87c5.71,0.71,11.55,0.93,17.39,0.9c5.85-0.01,11.72-0.34,17.6-0.76
		l0.02,0c0.79-0.06,1.47,0.54,1.53,1.33c0.05,0.74-0.48,1.39-1.19,1.51c-11.74,1.96-23.68,3.28-35.84,2.65
		c-3.04-0.13-6.09-0.48-9.14-0.93c-3.04-0.55-6.1-1.2-9.11-2.21c-3.01-1.01-5.99-2.31-8.8-4.05c-2.81-1.74-5.44-3.96-7.59-6.66
		c-2.16-2.69-3.82-5.83-4.79-9.12c-0.99-3.29-1.41-6.66-1.44-9.96c-0.01-6.61,1.4-12.89,3.35-18.83c2-5.93,4.58-11.55,7.48-16.96
		c1.45-2.7,3.02-5.33,4.65-7.93c0.82-1.29,1.65-2.58,2.51-3.85c0.88-1.29,1.73-2.49,2.74-3.83c1.66-2.2,4.8-2.64,7-0.98
		c2.2,1.66,2.64,4.8,0.98,7L290.39,428.76z"/>
</g>
<path class="st4" d="M318.43,371.55c0,0,0.51,13.75,12.53,20.36c0,0-5.3-10.4-4.94-17.19C326.38,367.92,317.63,366.85,318.43,371.55
	z"/>
<g>
	<g>
		<path class="st2" d="M814.94,679.17c23.22-1.07,46.48-1.3,69.72-0.69c-8.52,16.27-12.49,34.89-11.35,53.22
			c0.08,1.29,0.1,2.8-0.91,3.6c-0.69,0.56-1.66,0.58-2.55,0.58c-13.99,0.02-27.98,0.04-41.97,0.06c-0.52,0-1.1-0.02-1.48-0.37
			c-0.38-0.36-0.45-0.93-0.49-1.45c-1.45-18.79-6.83-37.26-15.69-53.89"/>
	</g>
	<g>
		<path class="st7" d="M813.81,682.53c10.12,3.74,21.48,3.4,32.12,3.55c12.35,0.17,19.69-2.06,31.89-3.5
			c2.41-0.28,4.83-3.06-1.71-2.97c-11.97,0.16-18.19-0.29-30.18-0.24c-10.93,0.04-20.25-1.35-30.96,0.79
			C812.74,680.61,813.81,682.53,813.81,682.53z"/>
	</g>
	<path class="st7" d="M860.91,679.39c-12.04,0.05-20.43-2.21-36.32,1.92c-4.05,1.22-4.15,3.27-1.95,3.52
		c17.29,1.98,31.17,2.41,50.4-1.62C873.57,683.1,866.92,679.36,860.91,679.39z"/>
	<g>
		<path class="st8" d="M873.05,602.8c-0.02,0.05-0.04,0.1-0.06,0.14c-2.14,4.8-3.11,10.16-6.02,14.53c-0.8,1.21-1.84,2.31-3.01,3.24
			c0-0.1,0.01-0.21,0.02-0.31c0.67-18.13,10.94-54.32-14.78-54.36c-9.49-0.01-17.1,11.19-20.03,19.37
			c-2.92,8.18-3.23,17.07-2.64,25.74c0.34,5.07,0.99,10.09,1.85,15.07c-3.55-0.24-7.07-1.51-10.64-2c-4.5-0.62-10.04,0.71-11.53,5
			c-1.4,4.02,1.8,8.48,5.79,9.97c3.99,1.49,8.42,0.81,12.6,0.01c2.1-0.4,4.24-0.86,6.13-1.82c3.9,16.14,9.86,31.87,15.94,47.37
			l-0.03,0.73c4.82-1.11,6.81-6.76,7.99-11.56c2.95-12.02,5.92-24.12,7.71-36.35c6.72-2.79,12.65-7.5,16.76-13.51
			c3.6-5.25,5.76-11.45,6.37-17.78C886.15,598.98,876.08,596.1,873.05,602.8z"/>
		<g>
			<g>
				<path class="st2" d="M834.62,571.67c1.67,1.41,3.29,3.05,5.17,4.16c0.48,0.29,0.99,0.14,1.4-0.18c0.07-0.06,0.13-0.15,0.18-0.23
					c0.27-0.47,0.16-1.01-0.18-1.4c-1.36-1.57-3.18-2.82-4.77-4.14C835.17,568.83,833.37,570.61,834.62,571.67L834.62,571.67z"/>
			</g>
			<g>
				<path class="st2" d="M826.99,582.12c2.11-0.18,4.07,0.35,5.9,1.4c0.48,0.27,1.07,0.18,1.47-0.19c0.16-0.15,0.23-0.33,0.31-0.53
					c0.2-0.51-0.14-1.09-0.56-1.37c-2.24-1.49-4.79-1.86-7.41-1.45C825.49,580.17,825.76,582.22,826.99,582.12L826.99,582.12z"/>
			</g>
			<g>
				<path class="st2" d="M820.96,597.41c1.16,0,2.32,0,3.48,0c0.97,0,2,0.16,2.82-0.44c0.35-0.25,0.35-0.69,0-0.94
					c-0.82-0.6-1.85-0.44-2.82-0.44c-1.16,0-2.32,0-3.48,0C819.79,595.6,819.79,597.41,820.96,597.41L820.96,597.41z"/>
			</g>
			<g>
				<path class="st2" d="M822.68,611.29c1.2-0.06,2.35-0.25,3.53-0.44c1.03-0.17,2.31-0.14,3-1.01c0.31-0.39,0.28-0.88-0.15-1.17
					c-0.9-0.6-1.99-0.23-2.99-0.07c-1.24,0.2-2.46,0.38-3.66,0.71C821.34,609.61,821.52,611.35,822.68,611.29L822.68,611.29z"/>
			</g>
			<g>
				<path class="st2" d="M826.37,622.36c1.22-0.51,2.44-1.03,3.66-1.54c0.97-0.41,2.16-0.63,2.71-1.59c0.21-0.37,0.03-0.9-0.41-1.01
					c-1.08-0.27-2.05,0.42-3.03,0.85c-1.21,0.53-2.43,1.06-3.64,1.59C824.7,621.08,825.4,622.77,826.37,622.36L826.37,622.36z"/>
			</g>
			<g>
				<path class="st2" d="M829.89,644.38c1.29-0.69,2.59-1.38,3.88-2.06c0.98-0.52,2.19-0.8,2.33-2.02c0.02-0.18-0.12-0.41-0.28-0.49
					c-1.08-0.55-2.04,0.38-2.99,0.9c-1.28,0.71-2.56,1.42-3.84,2.13C827.99,643.4,828.88,644.91,829.89,644.38L829.89,644.38z"/>
			</g>
			<g>
				<path class="st2" d="M832.44,657.25c0.98-0.5,1.96-0.99,2.94-1.49c0.79-0.4,1.73-0.68,2.21-1.45c0.15-0.24-0.05-0.5-0.3-0.52
					c-0.9-0.08-1.73,0.55-2.51,0.94c-0.98,0.49-1.97,0.98-2.95,1.47C831.14,656.55,831.75,657.6,832.44,657.25L832.44,657.25z"/>
			</g>
			<g>
				<path class="st2" d="M836.22,672.01c0.92-0.92,1.95-1.69,3.12-2.26c0.95-0.46,2.22-0.55,2.82-1.49
					c0.18-0.28,0.06-0.69-0.22-0.86c-1.09-0.64-2.54,0.19-3.55,0.71c-1.29,0.67-2.44,1.57-3.45,2.61
					C834.13,671.57,835.39,672.84,836.22,672.01L836.22,672.01z"/>
			</g>
			<g>
				<path class="st2" d="M843.81,575.1c-8.55,15.4-8.57,33.03-6.44,50.1c1.1,8.84,2.68,17.62,4.16,26.41
					c1.75,10.43,2.88,21.3,5.86,31.45c0.33,1.12,2.18,0.96,2.1-0.28c-2.2-35-21.15-72.76-4.07-106.74
					C845.94,574.98,844.39,574.05,843.81,575.1L843.81,575.1z"/>
			</g>
			<g>
				<path class="st2" d="M869.31,627.77c5.69-4.13,11.35-11.77,10.65-19.21c-0.04-0.41-0.63-0.54-0.75-0.1
					c-0.95,3.43-1.32,6.66-3.03,9.89c-1.8,3.41-4.27,6.3-7.31,8.65C868.42,627.35,868.84,628.11,869.31,627.77L869.31,627.77z"/>
			</g>
			<g>
				<path class="st2" d="M876.46,627.36c0.47-0.32,1.04-0.04,1.26,0.44c0.41,0.91,1.85,0.26,1.59-0.67
					c-0.49-1.75-2.57-2.24-3.92-1.17C874.6,626.59,875.64,627.93,876.46,627.36L876.46,627.36z"/>
			</g>
			<g>
				<path class="st2" d="M879.7,621.4c0.95-0.14,1.85,0.18,2.62,0.7c0.86,0.57,1.91-0.76,1.11-1.44c-1.17-0.99-2.71-1.31-4.15-0.78
					C878.32,620.24,878.71,621.55,879.7,621.4L879.7,621.4z"/>
			</g>
			<g>
				<path class="st2" d="M882.92,613.96c1.46-0.15,3.06-0.88,3.63-2.33c0.17-0.45-0.12-1.01-0.51-1.24
					c-0.45-0.27-0.94-0.13-1.33,0.17c-0.59,0.47-0.97,1.01-1.79,1.1c-0.62,0.06-1.15,0.48-1.15,1.15
					C881.77,613.39,882.3,614.03,882.92,613.96L882.92,613.96z"/>
			</g>
			<g>
				<path class="st2" d="M883.91,605.97c0.12-0.89,0.91-1.36,1.69-1.59c1.05-0.31,0.91-2.08-0.27-1.99
					c-1.88,0.16-3.22,1.75-3.39,3.58c-0.05,0.53,0.49,0.99,0.99,0.99C883.51,606.96,883.84,606.5,883.91,605.97L883.91,605.97z"/>
			</g>
			<g>
				<path class="st2" d="M881.16,596.83c-0.36,0.69-0.75,1.37-1.06,2.08c-0.3,0.68-0.62,1.38-0.31,2.12
					c0.14,0.34,0.43,0.57,0.82,0.46c1.43-0.38,1.93-2.35,2.47-3.54C883.65,596.68,881.84,595.55,881.16,596.83L881.16,596.83z"/>
			</g>
			<g>
				<path class="st2" d="M874.37,601.67c0.01,0.72-0.05,1.36,0.32,2.01c0.21,0.37,0.77,0.37,0.98,0c0.36-0.64,0.31-1.29,0.32-2.01
					C876,600.63,874.36,600.63,874.37,601.67L874.37,601.67z"/>
			</g>
			<g>
				<path class="st2" d="M810.19,630.58c-0.84,0.29-1.58,0.68-2.3,1.2c-0.69,0.51-1.55,0.99-2.1,1.65c-0.36,0.43-0.49,0.99-0.19,1.5
					c0.25,0.43,0.9,0.77,1.4,0.57c0.87-0.35,1.61-0.97,2.36-1.51c0.77-0.56,1.4-1.17,1.97-1.92
					C811.86,631.36,810.98,630.3,810.19,630.58L810.19,630.58z"/>
			</g>
			<g>
				<path class="st2" d="M813.47,636.78c-0.22,0.84-0.44,1.67-0.66,2.51c-0.14,0.53-0.39,1.44,0.38,1.64
					c0.71,0.19,0.96-0.58,1.1-1.09c0.23-0.88,0.44-1.77,0.66-2.65C815.19,636.23,813.72,635.83,813.47,636.78L813.47,636.78z"/>
			</g>
			<g>
				<path class="st2" d="M820.19,637.81c-0.01,0.84-0.01,1.68-0.02,2.52c0,0.54,0.02,1.45,0.78,1.45c0.71,0,0.78-0.8,0.78-1.32
					c0.01-0.88-0.01-1.77-0.02-2.65C821.72,636.83,820.2,636.83,820.19,637.81L820.19,637.81z"/>
			</g>
			<g>
				<path class="st2" d="M826.98,636.64c0.7,0,0.7-1.09,0-1.09C826.28,635.55,826.28,636.64,826.98,636.64L826.98,636.64z"/>
			</g>
			<g>
				<path class="st2" d="M851.7,570.19c0.65-1.47,1.29-2.95,1.94-4.42c0.52-1.19,1.32-2.46,1.25-3.79
					c-0.03-0.53-0.64-0.78-1.03-0.43c-0.98,0.89-1.32,2.34-1.8,3.55c-0.59,1.5-1.17,3-1.76,4.5
					C849.98,570.4,851.35,570.99,851.7,570.19L851.7,570.19z"/>
			</g>
			<g>
				<path class="st2" d="M861.14,575.34c0.84-1.45,1.67-2.9,2.51-4.35c0.67-1.16,1.69-2.4,1.64-3.78c-0.01-0.38-0.42-0.63-0.76-0.44
					c-1.2,0.67-1.74,2.18-2.39,3.34c-0.81,1.46-1.62,2.93-2.43,4.39C859.19,575.43,860.61,576.26,861.14,575.34L861.14,575.34z"/>
			</g>
			<g>
				<path class="st2" d="M864.21,588.68c1.4-0.49,2.8-0.99,4.2-1.48c1.09-0.38,2.31-0.54,2.99-1.53c0.22-0.31-0.01-0.77-0.35-0.86
					c-1.15-0.3-2.26,0.43-3.33,0.85c-1.31,0.51-2.61,1.03-3.92,1.54C862.9,587.55,863.27,589.01,864.21,588.68L864.21,588.68z"/>
			</g>
			<g>
				<path class="st2" d="M864.25,599.96c0.87-0.34,1.75-0.68,2.62-1.02c0.71-0.27,1.61-0.41,1.98-1.13c0.18-0.35,0.02-0.7-0.34-0.83
					c-0.74-0.28-1.51,0.23-2.21,0.51c-0.82,0.32-1.65,0.64-2.47,0.96C862.89,598.81,863.3,600.33,864.25,599.96L864.25,599.96z"/>
			</g>
			<g>
				<path class="st2" d="M863.99,609.8c0.86-0.02,1.81,0.08,2.65-0.15c0.23-0.06,0.23-0.4,0-0.47c-0.84-0.23-1.78-0.13-2.65-0.15
					C863.5,609.02,863.5,609.81,863.99,609.8L863.99,609.8z"/>
			</g>
			<g>
				<path class="st2" d="M848.04,681.8c4.49-13.52,6.94-27.31,7.83-41.52c0.96-15.32,2.73-31.02,2.48-46.37
					c-0.01-0.89-1.49-1.17-1.62-0.22c-1.95,14.21-1.96,28.86-2.94,43.18c-1.04,15.1-2.39,26.17-6.84,40.66
					C846.52,678.94,847.59,683.17,848.04,681.8L848.04,681.8z"/>
			</g>
		</g>
	</g>
</g>
<g>
	<g>
		
			<rect x="310.32" y="476.82" transform="matrix(0.8993 -0.4373 0.4373 0.8993 -175.1998 212.123)" class="st2" width="125.41" height="19.37"/>
	</g>
	<path class="st1" d="M309.19,530.84c-0.14,0.15-0.3,0.27-0.49,0.37c-1.56,0.78-4.69-0.37-4.69-0.37l-8.14-16.74
		c0,0,1.04-2.75,2.1-4.31c1.06-1.56,7.52-1.21,7.52-1.21s1.21-2.41,2.23-3.46c0.84-0.87,3.45-0.24,4.35,0.01
		c0.2,0.06,0.31,0.09,0.31,0.09l8.47,17.42c0,0-1.72,3.36-3.37,4.29c-1.64,0.93-5.35,0.51-5.35,0.51S310.45,529.39,309.19,530.84z"
		/>
	<path class="st1" d="M308.71,531.21c-1.56,0.78-4.69-0.37-4.69-0.37l-8.14-16.74c0,0,1.04-2.75,2.1-4.31
		c1.06-1.56,7.52-1.21,7.52-1.21s1.21-2.41,2.23-3.46c0.84-0.87,3.45-0.24,4.35,0.01c-1.47,1.22-2.88,2.52-3.2,4.54
		c-0.26,1.68,0.48,3.37,1.04,4.92c0.51,1.43,1.31,4.43,2.09,5.7c-1.32-2.17-4.25-4.06-6.55-5.87c-1.26-0.99-3.33-1.84-4.23-0.52
		c-0.55,0.81-0.2,1.89,0.17,2.79C303.48,521.7,305.92,526.55,308.71,531.21z"/>
	<g>
		<path class="st2" d="M295.47,535.83c-6.85-3.31-9.6-16.87-9.6-16.87c0.23-0.53,10.01-4.87,10.01-4.87l1.51,2.97l6.91,13.63
			l-7.16,4.16L295.47,535.83z"/>
	</g>
	<polygon class="st1" points="433.65,467.8 425.18,450.38 443.48,448.29 450.37,447.5 454.13,447.07 445.96,455.18 436.83,464.25 	
		"/>
	<path class="st9" d="M445.96,455.18c-1.49-1.96-2.34-4.42-2.48-6.89l6.89-0.79l3.76-0.43L445.96,455.18z"/>
	<g>
		<line class="st10" x1="433.65" y1="467.8" x2="430.9" y2="462.14"/>
	</g>
</g>
<path class="st5" d="M362.17,487.05c0,0-9.11-0.96-9.73-3.84c-0.63-2.88-0.52-4.92,3.63-5.99c4.15-1.07,10.36-0.56,14.02,0.49
	c3.66,1.05,9.05,5.4,9.32,6.25c0.98,3.08-5.45,0.48-8.63-0.62c-3.18-1.11-6.87-2.04-6.97-0.36c-0.1,1.68,6.14,3.34,6.66,5.3
	C370.99,490.24,362.17,487.05,362.17,487.05z"/>
<g>
	<polygon class="st11" points="506.93,585.33 720.72,596.39 712.3,459.45 	"/>
	<polygon class="st6" points="712.3,585.33 496.55,585.33 477.28,568.1 460.55,553.15 460.55,333.58 712.3,333.58 	"/>
	<polygon class="st12" points="460.55,553.15 496.55,585.33 498.34,547.54 	"/>
	<rect x="460.55" y="333.58" class="st12" width="251.75" height="35.75"/>
	<g>
		<g>
			<path class="st6" d="M749.18,306.38l-19.63-16.36c-0.66-0.55-1.61-0.58-2.3-0.08c-2.1,1.52-2.63,3.25-2.71,4.43
				c-0.09,1.42,0.41,2.67,0.96,3.59c0.03,0.04,0.02,0.1-0.02,0.13l-13.62,12.89c-0.03,0.03-0.09,0.04-0.13,0.01
				c-1.78-1.05-3.63-1.46-5.54-1.25c-4.11,0.46-6.81,3.81-6.93,3.95c-0.08,0.1-0.12,0.23-0.18,0.34c-0.05,0.1-0.12,0.18-0.15,0.28
				c-0.04,0.14-0.04,0.28-0.05,0.42c-0.01,0.1-0.03,0.19-0.03,0.28c0.01,0.15,0.07,0.3,0.12,0.45c0.03,0.08,0.03,0.16,0.07,0.24
				c0.11,0.22,0.26,0.41,0.45,0.58l9.8,8.43c0.04,0.04,0.05,0.1,0.02,0.15l8.8,7.66l0,0l7.03,5.79c0.72,0.59,1.77,0.57,2.46-0.07
				c4.39-4.05,3.41-8.54,1.78-11.22c-0.02-0.04-0.02-0.09,0.01-0.12l11.89-14.79c0.02-0.03,0.06-0.04,0.09-0.04
				c4.61,0.4,7.78-2.8,7.93-2.95c0.36-0.37,0.55-0.88,0.53-1.41C749.82,307.2,749.58,306.72,749.18,306.38z"/>
		</g>
		<path class="st4" d="M709.48,324.92l-19.84,26.18c-0.5,0.66-0.62,1.6-0.15,2.29c0.39,0.57,1,0.85,1.61,0.83
			c0.45-0.01,0.9-0.19,1.25-0.52l23.74-22.79c0.04-0.04,0.1-0.04,0.14-0.01l2.04,1.68l0,0L709.48,324.92z"/>
		<g>
			<defs>
				<path id="SVGID_1_" d="M749.18,306.38l-19.63-16.36c-0.66-0.55-1.61-0.58-2.3-0.08c-2.1,1.52-2.63,3.25-2.71,4.43
					c-0.09,1.42,0.41,2.67,0.96,3.59c0.03,0.04,0.02,0.1-0.02,0.13l-13.62,12.89c-0.03,0.03-0.09,0.04-0.13,0.01
					c-1.78-1.05-3.63-1.46-5.54-1.25c-4.11,0.46-6.81,3.81-6.93,3.95c-0.08,0.1-0.12,0.23-0.18,0.34c-0.05,0.1-0.12,0.18-0.15,0.28
					c-0.04,0.14-0.04,0.28-0.05,0.42c-0.01,0.1-0.03,0.19-0.03,0.28c0.01,0.15,0.07,0.3,0.12,0.45c0.03,0.08,0.03,0.16,0.07,0.24
					c0.11,0.22,0.26,0.41,0.45,0.58l9.8,8.43c0.04,0.04,0.05,0.1,0.02,0.15l8.8,7.66l0,0l7.03,5.79c0.72,0.59,1.77,0.57,2.46-0.07
					c4.39-4.05,3.41-8.54,1.78-11.22c-0.02-0.04-0.02-0.09,0.01-0.12l11.89-14.79c0.02-0.03,0.06-0.04,0.09-0.04
					c4.61,0.4,7.78-2.8,7.93-2.95c0.36-0.37,0.55-0.88,0.53-1.41C749.82,307.2,749.58,306.72,749.18,306.38z"/>
			</defs>
			<clipPath id="SVGID_2_">
				<use xlink:href="#SVGID_1_"  style="overflow:visible;"/>
			</clipPath>
		</g>
	</g>
</g>
<circle class="st6" cx="786.9" cy="450.38" r="27.18"/>
<circle class="st6" cx="773.31" cy="600.89" r="13.59"/>
<path class="st1" d="M332.37,821.01h-103.9c-3,0-5.43-2.43-5.43-5.43l0,0c0-3,2.43-5.43,5.43-5.43h103.9c3,0,5.43,2.43,5.43,5.43
	l0,0C337.81,818.58,335.37,821.01,332.37,821.01z"/>
<path class="st1" d="M457.4,846.79H353.5c-3,0-5.43-2.43-5.43-5.43l0,0c0-3,2.43-5.43,5.43-5.43h103.9c3,0,5.43,2.43,5.43,5.43l0,0
	C462.83,844.36,460.4,846.79,457.4,846.79z"/>
<path class="st1" d="M856.96,821.01h-103.9c-3,0-5.43-2.43-5.43-5.43l0,0c0-3,2.43-5.43,5.43-5.43h103.9c3,0,5.43,2.43,5.43,5.43
	l0,0C862.39,818.58,859.96,821.01,856.96,821.01z"/>
<path class="st1" d="M766.43,846.79h-103.9c-3,0-5.43-2.43-5.43-5.43l0,0c0-3,2.43-5.43,5.43-5.43h103.9c3,0,5.43,2.43,5.43,5.43
	l0,0C771.86,844.36,769.43,846.79,766.43,846.79z"/>
<rect x="768.82" y="505.96" transform="matrix(0.7071 0.7071 -0.7071 0.7071 604.908 -404.5367)" class="st6" width="43.91" height="43.91"/>
<path class="st1" d="M687.73,433.04H487.21c-2.25,0-4.08-1.83-4.08-4.08l0,0c0-2.25,1.83-4.08,4.08-4.08h200.52
	c2.25,0,4.08,1.83,4.08,4.08l0,0C691.81,431.22,689.98,433.04,687.73,433.04z"/>
<path class="st1" d="M618.03,451.15H487.21c-2.25,0-4.08-1.83-4.08-4.08l0,0c0-2.25,1.83-4.08,4.08-4.08h130.82
	c2.25,0,4.08,1.83,4.08,4.08l0,0C622.11,449.32,620.28,451.15,618.03,451.15z"/>
<path class="st1" d="M687.73,469.25H487.21c-2.25,0-4.08-1.83-4.08-4.08v0c0-2.25,1.83-4.08,4.08-4.08h200.52
	c2.25,0,4.08,1.83,4.08,4.08v0C691.81,467.43,689.98,469.25,687.73,469.25z"/>
<path class="st1" d="M687.73,489.58H487.21c-2.25,0-4.08-1.83-4.08-4.08l0,0c0-2.25,1.83-4.08,4.08-4.08h200.52
	c2.25,0,4.08,1.83,4.08,4.08l0,0C691.81,487.75,689.98,489.58,687.73,489.58z"/>
</svg>
