<?xml version="1.0" encoding="utf-8"?>
<!-- Generator: Adobe Illustrator 22.1.0, SVG Export Plug-In . SVG Version: 6.00 Build 0)  -->
<svg version="1.1" id="Layer_1" xmlns="http://www.w3.org/2000/svg" xmlns:xlink="http://www.w3.org/1999/xlink" x="0px" y="0px"
	 viewBox="0 0 1080 1080" style="enable-background:new 0 0 1080 1080;" xml:space="preserve">
<style type="text/css">
	.st0{fill:none;stroke:#D3D3D3;stroke-miterlimit:10;stroke-dasharray:12.1401,12.1401;}
	.st1{fill:#F7F7F7;}
	.st2{fill:#F2F2F2;}
	.st3{fill:#072C3D;}
	.st4{fill:#FCD2B1;}
	.st5{fill:#093954;}
	.st6{fill:#4F4F4F;}
	.st7{fill:#1E1E1E;}
	.st8{fill:#0E538C;}
	.st9{fill:#0B4870;}
	.st10{fill:#FFE3CA;}
	.st11{fill:#CCE9FF;}
	.st12{fill:#2A94F4;}
	.st13{fill:#0A3E5B;}
	.st14{fill:#FFBE55;}
	.st15{fill:#FFFFFF;}
	.st16{fill:none;stroke:#2A94F4;stroke-miterlimit:10;}
	.st17{fill:none;stroke:#2A94F4;stroke-width:4;stroke-miterlimit:10;stroke-dasharray:12;}
	.st18{fill:#B6E7FF;}
	.st19{fill:#85DDFF;}
	.st20{fill:#41AAF7;}
</style>
<g>
	<circle class="st0" cx="224.7" cy="266.3" r="123.7"/>
</g>
<g>
	<path class="st1" d="M296.1,240.5c-23.9,10.4-47.6,23.2-64.3,43.2c-16.7,20-25.1,48.7-15,72.8c13.4,32.1,55.8,50.8,56,85.6
		c0.1,24.9-22.9,43.9-46.1,53c-23.2,9.1-48.9,12.3-70,25.6c-31.9,20-46.8,58.7-52.9,95.8c-6.3,38.5-3.8,82.4,23.5,110.4
		c33.9,34.7,89.9,30.8,137.9,23.4c64-9.9,127.7-21.5,191.5-33.1c139.7-25.5,279.4-50.9,419-76.4c15-2.7,30.6-5.7,42.7-14.9
		c24.2-18.2,26.2-55.7,12.2-82.4c-14-26.8-40-45-65.8-60.7s-53.1-30.6-72.4-53.9s-28.9-57.7-14.3-84.1c12.4-22.4,39-34.4,50.6-57.2
		c15.3-30.1-2.3-68.5-30.1-87.7C770.7,180.5,422.2,185.3,296.1,240.5z"/>
</g>
<path class="st2" d="M1022.5,923.8h-965c-7.2,0-13-5.9-13-13v-77.5c0-7.2,5.9-13,13-13h965c7.2,0,13,5.9,13,13v77.5
	C1035.5,917.9,1029.6,923.8,1022.5,923.8z"/>
<g>
	<g>
		<rect x="224.7" y="819.2" class="st3" width="152.6" height="35"/>
		<g>
			<g>
				<path class="st4" d="M187.7,860.7c26,6.5,121.9,17.2,169.6,22.2c10.6,1.1,18.8,2,23.4,2.4c2.5,0.2,3.9,0.4,3.9,0.4
					s12.5-0.8,27.7-1.6c14-0.8,46.3-0.6,57.5-1c4.2-0.1,5.6-5.8,2-7.9c-6.6-3.8-34.3-15.1-47.9-16.8c-8.4-1-17.6-8.6-24.9-12.8
					c-5.6-3.3-12,2.4-17.1,4.3c-2.5,0.9-4.3,6.5-7.1,6.7c-0.7,0.1-1.4,0.1-2.1,0.2c-3.5,0.2-7.2,0-10.7-0.4c-1-0.1-1.9-0.2-2.9-0.4
					c-11.1-1.7-20.3-5.2-20.3-5.2c-34-17.6-108.8-64.7-167-52.2c-0.5,0.1-1,0.2-1.4,0.3c-0.5,0.1-1,0.2-1.4,0.3
					C110.5,813.9,152.8,851.9,187.7,860.7z"/>
				<path class="st5" d="M187.7,860.7c26,6.5,121.9,17.2,169.6,22.2l8.7-50.3c-1.7-0.3-3.5-0.4-5.3-0.4c-18.4-0.2-36.6-4-53.6-11.2
					c-38.6-16.5-93.2-33.1-138.2-21.9C110.5,813.9,152.8,851.9,187.7,860.7z"/>
			</g>
			<path class="st6" d="M396.1,846.8c0-5,6-8,6-8l46.6,17.2l25.4,13.8l5,7l-6,4.5l-52-7.5l-17-10L396.1,846.8z"/>
			<path class="st7" d="M372.6,856.8l8.1,28.5c2.5,0.2,3.9,0.4,3.9,0.4s12.5-0.8,27.7-1.6c14-0.8,46.3-0.6,57.5-1
				c4.2-0.1,5.6-5.8,2-7.9c-6.6-3.8-34.3-15.1-47.9-16.8c-8.4-1-17.6-8.6-24.9-12.8c-5.6-3.3-12,2.4-17.1,4.3
				c-2.5,0.9-4.3,6.5-7.1,6.7C374,856.7,373.3,856.8,372.6,856.8z"/>
		</g>
		<path class="st8" d="M358.8,770.4L315,784.8c-6.1,0-11.1-5.4-11.1-12c0,6.6-5,12-11.1,12L249,770.4
			c-32.7-10.7-53.3-45.7-48.4-82.3l6.3-36.6c3.2-23.4,21.7-40.8,43.6-40.8l11.8-2.8l1.1-0.3l21-5l8.5-2H315l8.5,2l21,5l1.1,0.3
			l11.8,2.8c21.9,0,40.4,17.3,43.6,40.8l6.3,36.6C412.1,724.7,391.6,759.7,358.8,770.4z"/>
		<polygon class="st8" points="388.3,813.5 221.6,807.9 211.1,663.2 401,663.2 		"/>
		<g>
			<g>
				<path class="st4" d="M431.3,860.7c-26,6.5-121.9,17.2-169.6,22.2c-10.6,1.1-18.8,2-23.4,2.4c-2.5,0.2-3.9,0.4-3.9,0.4
					s-12.5-0.8-27.7-1.6c-14-0.8-46.3-0.6-57.5-1c-4.2-0.1-5.6-5.8-2-7.9c6.6-3.8,34.3-15.1,47.9-16.8c8.4-1,17.6-8.6,24.9-12.8
					c5.6-3.3,12,2.4,17.1,4.3c2.5,0.9,4.3,6.5,7.1,6.7c0.7,0.1,1.4,0.1,2.1,0.2c3.5,0.2,7.2,0,10.7-0.4c1-0.1,1.9-0.2,2.9-0.4
					c11.1-1.7,20.3-5.2,20.3-5.2c34-17.6,108.8-64.7,167-52.2c0.5,0.1,1,0.2,1.4,0.3c0.5,0.1,1,0.2,1.4,0.3
					C508.5,813.9,466.2,851.9,431.3,860.7z"/>
				<path class="st9" d="M431.3,860.7c-26,6.5-121.9,17.2-169.6,22.2l-8.7-50.3c1.7-0.3,3.5-0.4,5.3-0.4c18.4-0.2,36.6-4,53.6-11.2
					c38.6-16.5,93.2-33.1,138.2-21.9C508.5,813.9,466.2,851.9,431.3,860.7z"/>
			</g>
			<path class="st6" d="M222.9,846.8c0-5-6-8-6-8L170.3,856l-25.4,13.8l-5,7l6,4.5l52-7.5l17-10L222.9,846.8z"/>
			<path class="st7" d="M246.4,856.8l-8.1,28.5c-2.5,0.2-3.9,0.4-3.9,0.4s-12.5-0.8-27.7-1.6c-14-0.8-46.3-0.6-57.5-1
				c-4.2-0.1-5.6-5.8-2-7.9c6.6-3.8,34.3-15.1,47.9-16.8c8.4-1,17.6-8.6,24.9-12.8c5.6-3.3,12,2.4,17.1,4.3c2.5,0.9,4.3,6.5,7.1,6.7
				C245,856.7,245.7,856.8,246.4,856.8z"/>
		</g>
		
			<ellipse transform="matrix(0.3569 -0.9341 0.9341 0.3569 -299.9196 677.928)" class="st10" cx="342.4" cy="556.8" rx="9" ry="7.5"/>
		<path class="st4" d="M285.3,586.1l0.6,21.7l0.6,0.8c8.4,12.2,26.6,11.7,34.4-0.8h0l-0.8-22.1L285.3,586.1z"/>
		<path class="st10" d="M342.2,543.3c0,42.5-18.4,57.5-39.3,57.5c-20.9,0-36.4-15-36.4-57.5c0-23.1,17-41.8,37.9-41.8
			S342.2,520.2,342.2,543.3z"/>
		<g>
			<path class="st8" d="M281.7,532.7c17,9.3,35.5,15.9,54.6,19.5c7.5,1.4,15.7-19.4,11.6-26.4c-5.7-9.9-11.4-22.9-21-29
				c-9.6-6.1-23.8-0.2-35,2c-10,2-13-1.4-21,5c-6.6,5.3-10.7,15.7-13,23.8c-2.3,8.1,0.7,25.3,9,27.2c2-12,6.8-15.1,9-21L281.7,532.7
				z"/>
		</g>
		
			<ellipse transform="matrix(0.9341 -0.3569 0.3569 0.9341 -181.1277 132.1338)" class="st10" cx="267.4" cy="556.8" rx="7.5" ry="9"/>
		<path class="st11" d="M383.3,831.6H222.6c-4.9,0-9-4-9-9l-4.5-108.7c0-4.9,4-9,9-9h169.7c4.9,0,9,4,9,9l-4.5,108.7
			C392.2,827.6,388.2,831.6,383.3,831.6z"/>
		<circle class="st9" cx="302.7" cy="768.3" r="17"/>
		<g>
			<path class="st8" d="M296.9,535.9c9.4,5.9,19,11.8,29.3,14.7c10.3,2.9,21.6,2.6,30.8-3.7c4.2-2.9,8.2-7.3,9.2-13.1
				c0.8-4.6-0.4-9.5-2.4-13.5c-2-4-4.9-7.2-7.7-10.4c0.6,4.4-2,8.7-5.3,10.4c-3.3,1.7-7.1,1.4-10.5,0.4c-5.7-1.6-11.1-4.8-16.6-7.5
				c-5.5-2.7-11.3-4.9-17.2-4.3c-5.9,0.6-11.8,4.4-14.3,11.1"/>
		</g>
	</g>
	<g>
		<rect x="716.4" y="808.7" class="st3" width="130.3" height="29.9"/>
		<polygon class="st12" points="856.2,803.9 713.8,799.1 704.8,675.5 867,675.5 		"/>
		<g>
			<path class="st10" d="M663.8,809.1c22.8,0.9,50.3,18.9,144.3,22.8c14.2,0.6,23,4.3,23,4.3s10,3.6,22.3,8
				c11.3,4,24.5,8.7,33.5,11.7c3.4,1.1,3.2,6.1-0.3,6.9c-8.6,2-27.9,1.7-41.9-3.1c-11.5,5.1-16.8,5.4-22.5,1.3
				c-1.9-1.4-4-2.5-6.2-3.4c-4.1-1.7-8.6-2.7-12.9-3.2c-9.5-1.3-17.9-0.6-17.9-0.6c-32.6,6.3-107.2,27.4-151.5,1.2
				C589.2,828.8,633.1,807.9,663.8,809.1z"/>
			<path class="st13" d="M663.8,809.1c22.8,0.9,104,15.4,144.3,22.8l-5.1,22.5c-9.5-1.3-17.9-0.6-17.9-0.6
				c-32.6,6.3-107.2,27.4-151.5,1.2C589.2,828.8,633.1,807.9,663.8,809.1z"/>
			<path class="st12" d="M832.2,850.5c4.5,1,11.1-4.4,21.3-6.3c11.3,4,24.5,8.7,33.5,11.7c3.4,1.1,3.2,6.1-0.3,6.9
				c-8.6,2-27.9,1.7-41.9-3.1c-11.5,5.1-16.8,5.4-22.5,1.3c-1.9-1.4-4-2.5-6.2-3.4C818.1,852,826.8,851.1,832.2,850.5z"/>
		</g>
		<path class="st12" d="M881.4,676c-1.2,37.5-4.7,84.2-14.4,98.9c-3.8,5.8-20.6,7.2-20.6,7.2h-32.5c0,0,0.1-0.2,0.3-0.5
			c0-0.1,0.1-0.1,0.1-0.2c1.7-2.9,8.2-14.7,13.8-30.7c6.6-18.9,12-43.6,6.4-66.1H732.1c-11.1,44.4,20.5,97.5,20.5,97.5h-32.5
			c0,0-17.2-3.6-21.1-11.1c-9.8-18.8-12.7-57.9-14-95.1c-1.7-52.1,56.5-61.8,87.7-63.7h20.9c1.1,0.1,2.2,0.2,3.3,0.3
			C828.9,615.9,883.1,625.7,881.4,676z"/>
		<path class="st8" d="M732.3,544c0-23.5,23.3-49.9,52.1-49.9s52.1,26.4,52.1,49.9s-23.3,44.2-52.1,44.2S732.3,567.5,732.3,544z"/>
		<polygon class="st4" points="768.2,594.4 772.9,622.9 784.5,678.4 794.1,622.9 798,594 		"/>
		<path class="st10" d="M816.8,557.8c0,19.7-14.5,43.4-32.3,43.4s-32.3-23.7-32.3-43.4s14.5-35.7,32.3-35.7S816.8,538.1,816.8,557.8
			z"/>
		<path class="st14" d="M851.9,819.4H714.6c-4.2,0-7.6-3.4-7.6-7.6l-3.9-92.8c0-4.2,3.4-7.6,7.6-7.6h144.9c4.2,0,7.6,3.4,7.6,7.6
			l-3.9,92.8C859.5,815.9,856.1,819.4,851.9,819.4z"/>
		<g>
			<path class="st10" d="M909.9,830.1c-19.6,11.7-95.6,43.8-133.4,59.6c-13.1,5.5-21.6,9-21.6,9s-10.4,2.4-23.1,5.4
				c-11.7,2.8-25.2,6.1-34.4,8.5c-3.5,0.9-6-3.3-3.5-6c6.1-6.4,22.5-16.7,36.8-20.3c6.8-10.5,11.2-13.7,18.2-13.3
				c2.3,0.1,4.7-0.1,7.1-0.6c4.3-0.8,8.7-2.5,12.6-4.3c8.6-4.1,15.3-9.3,15.3-9.3c23.9-23.1,74.9-81.4,126.3-83.7
				C961.7,772.9,936.4,814.4,909.9,830.1z"/>
			<path class="st13" d="M909.9,830.1c-19.6,11.7-95.6,43.8-133.4,59.6l-8-21.6c8.6-4.1,15.3-9.3,15.3-9.3
				c23.9-23.1,74.9-81.4,126.3-83.7C961.7,772.9,936.4,814.4,909.9,830.1z"/>
			<path class="st12" d="M746.3,887.3c-4.3,1.6-6.9,9.8-14.4,16.9c-11.7,2.8-25.2,6.1-34.4,8.5c-3.5,0.9-6-3.3-3.5-6
				c6.1-6.4,22.5-16.7,36.8-20.3c6.8-10.5,11.2-13.7,18.2-13.3c2.3,0.1,4.7-0.1,7.1-0.6C757.3,878.3,750.4,883.8,746.3,887.3z"/>
		</g>
		<circle class="st15" cx="783" cy="765.3" r="14.5"/>
		<g>
			<path class="st8" d="M775.8,506.5c1.1-20.6,15.2-39.9,34.6-47.1c19.3-7.2,42.7-1.9,57,12.9s18.8,38.3,10.9,57.4
				c-5.3,12.9-15.8,24.1-16.5,38c-0.8,15.7,11.1,29.2,13.8,44.6c3,16.9-6.6,35.3-22.2,42.5c-15.4,7.1-37,1.2-42.9-14.8
				c-4.4-11.8,0.6-25.2,8-35.4c7.4-10.2,17.2-18.4,24.5-28.7c4.6-6.4,8.2-13.9,8.5-21.7c0.4-7.9-3.1-16.2-9.8-20.3
				c-8.9-5.3-20.3-1.9-30.7-2.3c-18.3-0.6-35.3-14.8-39.2-32.7"/>
		</g>
		<g>
			<path class="st8" d="M761.9,525.3c1.5,11.8,10.8,21.7,21.8,26.3c11,4.6,23.4,4.8,35.2,3.4c1.1-0.1,2.3-0.3,3.1-1.1
				c1.2-1.2,0.9-3.3,0.4-5c-1.9-7.5-4.1-15.3-9.3-21c-7.3-8-19-10.1-29.7-9.7c-7.6,0.3-15.5,1.7-21.6,6.3"/>
		</g>
	</g>
</g>
<g>
	<path class="st12" d="M661.6,231.2c-4.7,0-9.4,0.5-13.9,1.4c-3.5-17.3-14.6-32-30.3-40c-15.7-8-34.2-8.3-50.2-0.9
		c-14.5-39.8-58.5-60.4-98.3-45.9c-39.8,14.5-60.4,58.5-45.9,98.3c-34.9,1.1-62.5,30-61.9,64.9c0.5,34.9,28.9,62.9,63.9,63h236.8
		c38.9,0,70.4-31.5,70.4-70.4S700.5,231.2,661.6,231.2z"/>
	<path class="st16" d="M680.6,221.2c-4.7,0-9.4,0.5-13.9,1.4c-3.5-17.3-14.6-32-30.3-40c-15.7-8-34.2-8.3-50.2-0.9
		c-14.5-39.8-58.5-60.4-98.3-45.9s-60.4,58.5-45.9,98.3c-34.9,1.1-62.5,30-61.9,64.9c0.5,34.9,28.9,62.9,63.9,63h236.8
		c38.9,0,70.4-31.5,70.4-70.4S719.5,221.2,680.6,221.2z"/>
</g>
<path class="st17" d="M624,354v374.6c0,33.9,27.5,61.4,61.4,61.4h20.7"/>
<path class="st17" d="M479.1,354v374.6c0,33.9-27.5,61.4-61.4,61.4H397"/>
<circle class="st12" cx="706.5" cy="790.5" r="14"/>
<circle class="st12" cx="392" cy="791" r="14"/>
<g>
	<path class="st18" d="M989.3,860.6c14.5,0,20.6-11.6,23-23.9c2.7-13.9,0.7-28.6,0.7-28.6h-47.5c0,0-0.1,0.6-0.2,1.6
		C964.5,818.4,961.6,860.6,989.3,860.6z"/>
	<path class="st19" d="M965.6,808.1c0,1,10.6,1.9,23.7,1.9c13.1,0,23.7-0.8,23.7-1.9c0-1-10.6-1.9-23.7-1.9
		C976.2,806.2,965.6,807.1,965.6,808.1z"/>
	<path class="st12" d="M925,676.5c0,0,25,38.1,40.1,61.4c15,23.3,19,28.1,20.7,35.6c1.8,7.5,3.4,35.2,3.4,35.2h1.1
		c0,0-0.4-23.5-1.7-31.5c-1.3-7.7,0.1-10.4,1.2-18.5c1.1-8,2.5-20.9-5.6-29.9c-8.1-8.9-6-17.7-8.9-23.6c-2.9-5.9-25-13.1-27.9-19.1
		C944.5,680.1,932,676.3,925,676.5z"/>
	<path class="st20" d="M925,676.5c0,0,7.9,8.9,13.2,12c5.4,3,7.9,0.4,12,7.7c4.1,7.3,4.3,10.6,8,14.3c3.8,3.8,8.2,3.9,8.6,12.2
		c0.4,8.2-1.8,15.2-1.8,15.2S926.6,678.4,925,676.5z"/>
	<path class="st12" d="M987.2,808.7h-1.1c0,0-0.3-7.6-3.4-11.3c-1.9-2.4-10.2-5.1-18.4-8.3c-4.5-1.8-9-3.7-12.4-5.9
		c-9.5-6.1-18.6-25.5-19.4-29c-0.3-1.2-0.4-1.9-0.4-2.4v0c0-0.9,0.5-1.1,1.3-2c0.4-0.5,1.5-0.3,3,0.1c4.1,1.3,7.6,4.1,9.7,7.8
		c2,3.4,5.2,7.7,9.1,8.8c6.7,1.8,6.2,2.9,8.6,9.7c2.5,6.8,8.7,8,16.6,16C988.2,800.1,987.2,808.7,987.2,808.7z"/>
	<path class="st20" d="M964.3,789c-4.5-1.8-9-3.7-12.4-5.9c-9.5-6.1-18.6-25.5-19.4-29c-0.3-1.2-0.4-1.9-0.4-2.4
		c0,0.2,0.5,3.3,5.4,5.4c5.2,2.1,6.2,2.1,6.8,5.4c0.7,3.2,1.2,6.7,3.9,7.4c2.7,0.7,4.4-2.4,6.5,2.6c2.1,4.9,3.1,6.6,5.1,7.3
		c2,0.7,3.4-0.3,3.9,3.5C964.1,785.4,964.2,787.6,964.3,789z"/>
	<path class="st12" d="M995.5,808.7h1.3c0,0,2.6-47.2,6.2-51.5c2.3-2.8,9.9-7.9,19.6-11.7c5.3-2.1,10.7-4.4,14.7-7
		c11.3-7.2,22-30.3,23-34.4c0.3-1.4,0.5-2.3,0.5-2.9v0c0-1.1-0.6-1.3-1.5-2.4c-0.5-0.5-1.8-0.4-3.5,0.2c-4.9,1.5-9,4.8-11.5,9.2
		c-2.4,4.1-6.1,9.2-10.7,10.4c-8,2.1-7.3,3.4-10.2,11.5c-2.9,8.1-10.3,9.4-19.6,19C994.3,758.6,995.5,808.7,995.5,808.7z"/>
	<path class="st20" d="M1022.6,745.4c5.3-2.1,10.7-4.4,14.7-7c11.3-7.2,22-30.3,23-34.4c0.3-1.4,0.5-2.3,0.5-2.9
		c0,0.3-0.6,3.9-6.4,6.4c-6.1,2.5-7.3,2.5-8.1,6.4c-0.8,3.8-1.5,8-4.6,8.8c-3.2,0.8-5.2-2.8-7.7,3c-2.5,5.8-3.7,7.8-6,8.6
		c-2.3,0.8-4.1-0.4-4.6,4.1C1022.9,741.2,1022.7,743.8,1022.6,745.4z"/>
	<g>
		<path class="st11" d="M989.3,860.6c14.5,0,20.6-11.6,23-23.9c-14.2-5.4-32.1-14-46.9-27C964.5,818.4,961.6,860.6,989.3,860.6z"/>
	</g>
</g>
<g>
	<path class="st18" d="M106,856c13.8,0,19.6-11,21.9-22.7c2.6-13.2,0.7-27.2,0.7-27.2H83.3c0,0-0.1,0.5-0.2,1.5
		C82.3,815.8,79.6,856,106,856z"/>
	<path class="st19" d="M83.3,806c0,1,10.1,1.8,22.6,1.8c12.5,0,22.6-0.8,22.6-1.8c0-1-10.1-1.8-22.6-1.8
		C93.5,804.2,83.3,805,83.3,806z"/>
	<path class="st12" d="M31.8,655.8c0,0,28.6,43.5,45.7,70s21.6,32,23.7,40.6c2,8.6,3.9,40.2,3.9,40.2h2.2c0,0,1.4-26.7-1.2-35.5
		c-2.7-8.8-1.6-12.2-0.4-21.4c1.2-9.2,2.9-23.9-6.4-34.1c-9.3-10.2-6.8-20.2-10.1-26.9c-3.3-6.7-28.6-14.9-31.8-21.8
		C54,659.9,39.7,655.6,31.8,655.8z"/>
	<path class="st20" d="M38,655.8c0,0,9,10.2,15.1,13.7c6.1,3.5,9,0.4,13.7,8.8c4.7,8.4,4.9,12,9.2,16.3c4.3,4.3,9.4,4.5,9.8,13.9
		c0.4,9.4-2,17.3-2,17.3S39.9,658,38,655.8z"/>
	<path class="st12" d="M114.5,806l1.6-0.5c0,0-2.8-11.2,0-18c1.8-4.3,12.7-11.9,23.2-20.2c5.8-4.6,11.5-9.4,15.5-14
		c11.2-13,15.9-45.3,15.6-50.7c-0.1-1.9-0.3-3-0.5-3.7l0,0c-0.4-1.4-1.2-1.4-2.8-2.4c-0.8-0.5-2.4,0.2-4.3,1.5
		c-5.4,3.6-9.3,9.2-10.8,15.6c-1.4,5.9-4.1,13.5-9.4,16.7c-9,5.6-7.7,6.9-8.3,18c-0.6,11-9.2,15.4-17.1,30.6
		C109.3,794.1,114.5,806,114.5,806z"/>
	<path class="st20" d="M139.3,767.4c5.8-4.6,11.5-9.4,15.5-14c11.2-13,15.9-45.3,15.6-50.7c-0.1-1.9-0.3-3-0.5-3.7
		c0.1,0.3,0.8,5-5.6,10.2c-6.6,5.3-8,5.8-7.6,10.8c0.4,5,1.1,10.3-2.5,12.5c-3.6,2.2-7.4-1.5-8.3,6.6c-1,8.1-1.7,11-4.3,12.8
		c-2.6,1.8-5.2,1-4.1,6.8C138.1,762.1,138.8,765.4,139.3,767.4z"/>
	<g>
		<path class="st11" d="M106,856c13.8,0,19.6-11,21.9-22.7c-13.5-5.1-30.6-13.4-44.7-25.8C82.3,815.8,79.6,856,106,856z"/>
	</g>
</g>
</svg>
